<svg width="44" height="44" viewBox="0 0 44 44" fill="none" xmlns="http://www.w3.org/2000/svg">
<path d="M18.3744 29.9091C18.3881 28.6749 18.2754 27.7698 17.8185 26.5493C17.5688 25.8823 17.0765 25.3459 16.5549 24.861C14.9833 23.4002 14 21.3149 14 19C14 14.5817 17.5817 11 22 11C26.4183 11 30 14.5817 30 19C30 21.3149 29.0167 23.4002 27.4451 24.861C26.9235 25.3459 26.4312 25.8823 26.1815 26.5493C25.7246 27.7698 25.6119 28.6749 25.6256 29.9091M18.3744 29.9091C18.3727 30.065 18.369 30.2262 18.3636 30.3939C18.3636 30.3939 18.4698 31.6706 18.8485 32.3333C19.053 32.6913 19.4609 33.0869 19.7929 33.3751C20.115 33.6547 20.5331 33.7879 20.9597 33.7879H23.0403C23.4669 33.7879 23.885 33.6547 24.2071 33.3751C24.5391 33.0869 24.947 32.6913 25.1515 32.3333C25.5302 31.6706 25.6364 30.3939 25.6364 30.3939C25.631 30.2262 25.6273 30.065 25.6256 29.9091M18.3744 29.9091H20.7879M25.6256 29.9091H20.7879M25.6256 29.9091H23.4545M20.7879 29.9091V21.1818M20.7879 29.9091H23.4545M20.7879 21.1818C20.7879 21.1818 21.0259 20.243 20.7879 19.7273C20.5338 19.1769 20.1819 18.7509 19.5758 18.7576C18.9064 18.7649 18.3636 19.3003 18.3636 19.9697C18.3636 20.6391 18.9407 20.9701 19.5758 21.1818C20.0248 21.3315 20.7879 21.1818 20.7879 21.1818ZM20.7879 21.1818H23.4545M23.4545 29.9091V21.1818M23.4545 21.1818C23.4545 21.1818 23.2165 20.243 23.4545 19.7273C23.7086 19.1769 24.0605 18.7509 24.6667 18.7576C25.3361 18.7649 25.8788 19.3003 25.8788 19.9697C25.8788 20.6391 25.3018 20.9701 24.6667 21.1818C24.2176 21.3315 23.4545 21.1818 23.4545 21.1818ZM16 19C16.0268 18.9181 16.0536 18.8373 16.0805 18.7576M22 13.5C19.3415 13.5903 17.9339 14.5492 16.8366 16.8463" stroke="black" stroke-width="1.5" stroke-linecap="round"/>
</svg>
