<svg width="44" height="44" viewBox="0 0 44 44" fill="none" xmlns="http://www.w3.org/2000/svg">
<path d="M9.16667 12.8333H11C11.9725 12.8333 12.9051 12.447 13.5927 11.7594C14.2804 11.0718 14.6667 10.1391 14.6667 9.16667C14.6667 8.68044 14.8598 8.21412 15.2036 7.8703C15.5475 7.52649 16.0138 7.33333 16.5 7.33333H27.5C27.9862 7.33333 28.4525 7.52649 28.7964 7.8703C29.1402 8.21412 29.3333 8.68044 29.3333 9.16667C29.3333 10.1391 29.7196 11.0718 30.4073 11.7594C31.0949 12.447 32.0275 12.8333 33 12.8333H34.8333C35.8058 12.8333 36.7384 13.2196 37.4261 13.9073C38.1137 14.5949 38.5 15.5275 38.5 16.5V33C38.5 33.9725 38.1137 34.9051 37.4261 35.5927C36.7384 36.2804 35.8058 36.6667 34.8333 36.6667H9.16667C8.19421 36.6667 7.26158 36.2804 6.57394 35.5927C5.88631 34.9051 5.5 33.9725 5.5 33V16.5C5.5 15.5275 5.88631 14.5949 6.57394 13.9073C7.26158 13.2196 8.19421 12.8333 9.16667 12.8333Z" stroke="black" stroke-width="1.5" stroke-linecap="round" stroke-linejoin="round"/>
<path d="M22 29.3333C25.0376 29.3333 27.5 26.8709 27.5 23.8333C27.5 20.7958 25.0376 18.3333 22 18.3333C18.9624 18.3333 16.5 20.7958 16.5 23.8333C16.5 26.8709 18.9624 29.3333 22 29.3333Z" stroke="black" stroke-width="1.5" stroke-linecap="round" stroke-linejoin="round"/>
</svg>
