<svg width="44" height="44" viewBox="0 0 44 44" fill="none" xmlns="http://www.w3.org/2000/svg">
<path d="M8 9H14.3137C15.2878 9 16.1203 9.7019 16.2849 10.6621L19.1437 27.3379C19.3083 28.2981 20.1407 29 21.1149 29H31.4684C32.4373 29 33.2669 28.3054 33.4372 27.3516L35.5801 15.3516C35.799 14.1257 34.8565 13 33.6112 13H22.2857M23.4286 18.7143H30.8572" stroke="black" stroke-width="1.5" stroke-linecap="round"/>
<path d="M24.3 24H29.8M24.3 33.35C24.3 34.2613 23.5613 35 22.65 35C21.7387 35 21 34.2613 21 33.35C21 32.4387 21.7387 31.7 22.65 31.7C23.5613 31.7 24.3 32.4387 24.3 33.35ZM32 33.35C32 34.2613 31.2613 35 30.35 35C29.4387 35 28.7 34.2613 28.7 33.35C28.7 32.4387 29.4387 31.7 30.35 31.7C31.2613 31.7 32 32.4387 32 33.35Z" stroke="black" stroke-width="1.5" stroke-linecap="round" stroke-linejoin="round"/>
</svg>
