<svg width="44" height="44" viewBox="0 0 44 44" fill="none" xmlns="http://www.w3.org/2000/svg">
<path d="M16.2161 17.1325L16.463 17.7997C16.5886 18.1393 16.8564 18.4071 17.1959 18.5327L17.8632 18.7796C18.9433 19.1793 18.9433 20.707 17.8632 21.1066L17.1959 21.3535C16.8564 21.4792 16.5886 21.7469 16.463 22.0865L16.2161 22.7537C15.8164 23.8338 14.2887 23.8338 13.889 22.7537L13.6421 22.0865C13.5165 21.7469 13.2487 21.4792 12.9092 21.3535L12.2419 21.1066C11.1618 20.707 11.1618 19.1793 12.2419 18.7796L12.9092 18.5327C13.2487 18.4071 13.5165 18.1393 13.6421 17.7997L13.889 17.1325C14.2887 16.0524 15.8164 16.0524 16.2161 17.1325Z" stroke="black" stroke-width="1.5"/>
<path d="M29.9399 16.9656C29.9399 17.5138 29.4956 17.9581 28.9474 17.9581C28.3993 17.9581 27.955 17.5138 27.955 16.9656C27.955 16.4175 28.3993 15.9731 28.9474 15.9731C29.4956 15.9731 29.9399 16.4175 29.9399 16.9656Z" stroke="black" stroke-width="1.5"/>
<path d="M32.4212 19.4469C32.4212 19.995 31.9768 20.4394 31.4287 20.4394C30.8805 20.4394 30.4362 19.995 30.4362 19.4469C30.4362 18.8987 30.8805 18.4544 31.4287 18.4544C31.9768 18.4544 32.4212 18.8987 32.4212 19.4469Z" stroke="black" stroke-width="1.5"/>
<path d="M29.9399 21.9281C29.9399 22.4762 29.4956 22.9206 28.9474 22.9206C28.3993 22.9206 27.955 22.4762 27.955 21.9281C27.955 21.38 28.3993 20.9356 28.9474 20.9356C29.4956 20.9356 29.9399 21.38 29.9399 21.9281Z" stroke="black" stroke-width="1.5"/>
<path d="M27.4587 19.4469C27.4587 19.995 27.0144 20.4394 26.4662 20.4394C25.9181 20.4394 25.4737 19.995 25.4737 19.4469C25.4737 18.8987 25.9181 18.4544 26.4662 18.4544C27.0144 18.4544 27.4587 18.8987 27.4587 19.4469Z" stroke="black" stroke-width="1.5"/>
</svg>
