<svg width="44" height="44" viewBox="0 0 44 44" fill="none" xmlns="http://www.w3.org/2000/svg">
<path d="M33.5193 22.5362C33.5193 16.1649 28.3544 11 21.9831 11C15.6119 11 10.447 16.1649 10.447 22.5362M33.5193 22.5362H31.837M33.5193 22.5362V26.3816M31.837 22.5362V24.9396V26.3816M31.837 22.5362V22.5362C30.7811 22.5362 29.9255 21.7156 29.6797 20.6887C28.7925 16.9815 26.1283 14.5 21.9831 14.5C17.819 14.5 15.1494 16.7327 14.2745 20.6871C14.0464 21.718 13.1852 22.5362 12.1293 22.5362M33.5193 26.3816L33.8684 27.4289C33.9551 27.689 33.9863 27.965 33.9536 28.2373C33.7766 29.7129 33.5224 30.719 33.042 31.952C32.765 32.663 32.0652 33.111 31.3022 33.111H29.6739M33.5193 26.3816H31.837M29.6739 33.111L29.3773 33.289C28.8136 33.6272 28.1162 33.654 27.5282 33.36L27.0302 33.111M29.6739 33.111C30.3044 30.4187 30.7527 28.9379 31.837 26.3816M31.837 26.3816C31.2471 25.32 30.7958 24.9677 29.6739 24.9396H29.0004C28.1236 24.9396 27.3578 25.5328 27.1387 26.3818L25.9766 30.885C25.7501 31.7628 26.1675 32.6797 26.9784 33.0851L27.0302 33.111M27.0302 33.111L28.4722 29.2656M29.1933 27.3429L29.013 27.8236M10.447 22.5362H12.1293M10.447 22.5362V26.3816M12.1293 22.5362V24.9396V26.3816M10.447 26.3816L10.0979 27.4289C10.0112 27.689 9.98002 27.9651 10.0127 28.2373C10.1897 29.713 10.4439 30.719 10.9243 31.952C11.2013 32.663 11.9011 33.111 12.6641 33.111H14.2924M10.447 26.3816H12.1293M14.2924 33.111L14.589 33.289C15.1527 33.6272 15.8501 33.654 16.4381 33.36L16.9361 33.111M14.2924 33.111C13.6619 30.4187 13.2136 28.9379 12.1293 26.3816M12.1293 26.3816C12.7192 25.32 13.1704 24.9677 14.2924 24.9396H14.9659C15.8427 24.9396 16.6085 25.5328 16.8276 26.3818L17.9897 30.885C18.2162 31.7629 17.7988 32.6797 16.9879 33.0851L16.9361 33.111M16.9361 33.111L15.494 29.2656M14.773 27.3429L14.9533 27.8236" stroke="black" stroke-width="1.5" stroke-linecap="round"/>
</svg>
