<svg width="44" height="44" viewBox="0 0 44 44" fill="none" xmlns="http://www.w3.org/2000/svg">
<path d="M10.4611 20.8323C7.94259 21.3798 6.81332 22.1257 6.3314 22.7779C5.7406 23.5774 6.02327 24.8091 6.52803 25.6655M10.4611 20.8323C11.7285 20.5567 13.1343 20.0801 14.5693 19.5142M10.4611 20.8323C10.4611 20.8323 11.4277 22.2822 12.3944 22.7656C13.361 23.2489 20.6109 24.2156 20.6109 24.2156M29.0691 17.6906C29.0691 17.6906 27.6192 15.5157 25.9275 15.0323C25.326 14.8605 23.8995 15.3914 22.0609 16.2013M29.0691 17.6906L29.7479 18.2336C30.0907 18.5079 30.5166 18.6573 30.9556 18.6573H32.5136M29.0691 17.6906C29.0691 17.6906 24.9609 22.0406 23.5109 22.7656L20.6109 24.2156M14.5693 19.5142L16.0193 21.5573M14.5693 19.5142C15.4528 19.1658 16.3473 18.7836 17.2276 18.3936M17.2276 18.3936L18.6776 20.5906M17.2276 18.3936C18.0527 18.028 18.8652 17.6557 19.6443 17.2979M19.6443 17.2979L21.0942 19.3823M19.6443 17.2979L19.7873 17.2323M19.6443 17.2979C19.6921 17.276 19.7397 17.2541 19.7873 17.2323M22.0609 16.2013L23.5109 18.4156M22.0609 16.2013C21.3559 16.5119 20.5902 16.8635 19.7873 17.2323M20.6109 24.2156L24.7192 26.6322M24.7192 26.6322C24.7192 26.6322 17.63 27.0507 13.1193 26.6322C10.5289 26.3918 6.52803 25.6655 6.52803 25.6655M24.7192 26.6322H31.1233M6.52803 25.6655C6.91118 26.3156 7.63798 27.1011 9.01107 27.8405C10.0604 28.4056 10.975 28.7279 11.7277 28.9067C12.8432 29.1717 14.0016 29.127 15.157 29.0825C15.5946 29.0657 16.0318 29.0488 16.466 29.0488H36.5607C37.0946 29.0488 37.5274 28.616 37.5274 28.0822V26.6322M37.5274 26.6322V26.5749C37.5274 26.2971 37.6096 26.0255 37.7637 25.7944C37.9244 25.5533 38.0068 25.2684 37.9996 24.9787L37.8717 19.8656M37.5274 26.6322H31.1233M31.1233 26.6322C31.8898 22.7621 33.1072 21.1097 37.8717 19.8656M37.8717 19.8656L37.7926 16.6998C37.7795 16.1755 37.3507 15.7573 36.8262 15.7573H36.3964C35.9533 15.7573 35.5941 16.1165 35.5941 16.5596C35.5941 17.1129 35.309 17.6271 34.8399 17.9203L34.6336 18.0493M32.5136 18.6573C33.2632 18.6573 33.9978 18.4466 34.6336 18.0493M32.5136 18.6573V18.6573C33.2632 18.6573 33.9978 18.4466 34.6336 18.0493V18.0493" stroke="black" stroke-width="1.5" stroke-linecap="round"/>
</svg>
