<svg width="44" height="44" viewBox="0 0 44 44" fill="none" xmlns="http://www.w3.org/2000/svg">
<path d="M23.5 29.5H28.5" stroke="black" stroke-width="1.5" stroke-linecap="round"/>
<path d="M24.6326 21.5C24.9257 21.24 25.2216 20.9125 25.5 20.5C26.9093 18.4123 27.4125 14.3747 26.5 12.5C26.0447 11.5646 25.0344 10.9695 24.0403 10.5958C22.4113 9.98353 20.5887 9.98353 18.9597 10.5958C17.9656 10.9695 16.9553 11.5646 16.5 12.5C15.5875 14.3747 16.0907 18.4123 17.5 20.5C17.7784 20.9125 18.0743 21.24 18.3674 21.5M24.6326 21.5C23.5482 22.4617 21.5 22.5 21.5 22.5C21.5 22.5 19.4518 22.4617 18.3674 21.5M24.6326 21.5C27.402 23.5043 31.4524 26.2607 32.7507 28.5522C32.9163 28.8445 33 29.5121 33 29.5121V32.5C33 33.6046 32.1046 34.5 31 34.5H21.5H12C10.8954 34.5 10 33.6046 10 32.5V29.637C10 29.5538 10.0049 29.4709 10.0179 29.3887C10.0507 29.1818 10.128 28.7663 10.2493 28.5522C11.5476 26.2607 15.598 23.5043 18.3674 21.5" stroke="black" stroke-width="1.5" stroke-linecap="round"/>
</svg>
