<svg width="44" height="44" viewBox="0 0 44 44" fill="none" xmlns="http://www.w3.org/2000/svg">
<path d="M10.1671 19.7005C9.59175 17.4536 10.6151 15.1831 11.5209 13.9473C12.0908 13.1699 13.0965 13.2436 13.7684 13.9347C16.4085 16.6496 22.4009 24.5065 22.8631 25.2689C23.4251 26.1957 24.0352 26.6941 25.0905 27.0508C26.0794 27.3851 27.7634 27.0508 27.7634 27.0508L28.178 26.8953C29.061 26.5642 30.0469 26.5249 30.8973 26.9326C32.266 27.5887 33.055 28.3838 33.6075 29.8037C33.8896 30.5286 33.5325 31.3272 32.8572 31.7131V31.7131C32.5847 31.8688 32.2751 31.9475 31.9614 31.9408L24.5001 31.7821C22.9561 31.7492 21.5772 30.8249 20.8266 29.4753C20.1247 28.2129 19.1734 26.6991 18.1857 25.7144C16.9536 24.4862 14.6219 23.0416 14.6219 23.0416M10.1671 19.7005L14.6219 23.0416M10.1671 19.7005C10.364 21.3077 10.5642 22.3389 11.2264 24.1074C11.4041 24.582 11.5036 25.0838 11.5036 25.5905V30.6146C11.5036 31.3527 12.1019 31.951 12.84 31.951V31.951C13.5781 31.951 14.1764 31.3527 14.1764 30.6146V25.7474C14.1764 25.1394 14.3576 24.5506 14.4927 23.9578C14.5497 23.7073 14.5886 23.4208 14.6219 23.0416M24.5 30H28.9762M31 30H31.5499" stroke="black" stroke-width="1.5" stroke-linecap="round"/>
</svg>
